<?xml version="1.0" standalone="no"?>
<!DOCTYPE svg PUBLIC "-//W3C//DTD SVG 20010904//EN"
 "http://www.w3.org/TR/2001/REC-SVG-20010904/DTD/svg10.dtd">
<svg version="1.0" xmlns="http://www.w3.org/2000/svg"
 width="984.000000pt" height="984.000000pt" viewBox="0 0 984.000000 984.000000"
 preserveAspectRatio="xMidYMid meet">
<metadata>
Created by potrace 1.14, written by Peter Selinger 2001-2017
</metadata>
<g transform="translate(0.000000,984.000000) scale(0.100000,-0.100000)"
fill="#000000" stroke="none">
<path d="M1974 9094 c-1 -410 -4 -747 -6 -749 -2 -3 -319 -6 -704 -7 -695 -3
-699 -3 -737 -25 -63 -35 -104 -85 -123 -149 -28 -92 -26 -730 2 -1029 13
-140 31 -283 39 -315 2 -8 16 -100 16 -102 0 -2 11 -43 25 -93 13 -49 27 -100
30 -113 11 -50 77 -237 86 -243 5 -3 9 -9 8 -13 -4 -11 49 -133 98 -226 47
-89 138 -228 194 -294 81 -96 252 -257 300 -282 14 -7 28 -17 30 -21 14 -32
268 -166 433 -228 66 -25 188 -66 210 -71 6 -1 46 -11 90 -22 44 -12 98 -24
120 -28 22 -4 45 -8 50 -9 69 -16 260 -36 373 -38 60 -2 65 -4 79 -32 9 -16
19 -32 22 -35 3 -3 28 -39 55 -80 45 -68 186 -253 254 -333 74 -87 349 -353
439 -425 57 -45 108 -86 115 -91 7 -6 63 -47 123 -92 61 -44 112 -85 113 -90
2 -5 8 -9 14 -9 5 0 15 -6 22 -12 7 -7 34 -31 61 -53 72 -59 245 -231 245
-244 0 -6 3 -11 8 -11 10 0 58 -72 55 -82 -2 -4 1 -8 6 -8 10 0 73 -125 87
-175 22 -78 37 -178 37 -255 1 -90 -8 -207 -17 -240 -3 -8 -7 -31 -10 -50 -10
-61 -16 -89 -26 -115 -5 -14 -8 -25 -5 -25 2 0 -3 -16 -11 -35 -8 -19 -11 -35
-7 -35 4 0 2 -5 -4 -11 -8 -8 -102 -12 -300 -14 -158 -1 -297 -5 -308 -8 -11
-3 -33 -8 -50 -12 -41 -10 -159 -65 -163 -76 -2 -5 -10 -9 -18 -9 -8 0 -14 -4
-14 -10 0 -5 -5 -10 -11 -10 -13 0 -104 -91 -140 -140 -27 -38 -59 -102 -86
-175 -16 -45 -28 -169 -28 -286 1 -76 -1 -139 -4 -140 -3 -1 -31 -2 -61 -4
-212 -11 -369 -93 -501 -261 -20 -26 -78 -142 -84 -169 -2 -11 -10 -40 -16
-65 -12 -49 -17 -949 -5 -1012 7 -37 46 -81 86 -96 34 -12 4856 -12 4890 0 38
14 78 57 86 92 11 50 11 106 0 106 -8 0 -8 3 0 8 6 4 9 21 7 37 -2 17 -3 36
-3 43 0 29 0 73 -1 85 0 6 2 22 5 34 3 14 0 23 -7 23 -8 0 -8 3 -2 8 12 8 12
591 0 652 -15 82 -68 209 -108 259 -99 122 -230 208 -359 237 -43 9 -93 15
-148 17 l-55 2 -1 145 c-1 137 -8 227 -21 260 -3 8 -7 22 -9 30 -4 21 -49 118
-71 154 -18 30 -146 166 -155 166 -3 0 -31 16 -63 35 -55 32 -113 56 -180 71
-16 4 -138 9 -270 10 -132 2 -252 3 -266 3 -22 1 -28 8 -37 39 -31 111 -44
159 -48 174 -10 46 -12 56 -18 100 -4 26 -10 66 -14 90 -9 48 -8 225 2 278 9
56 15 80 22 103 5 12 8 27 9 32 6 51 113 246 157 286 10 9 18 20 18 24 0 11
152 160 220 215 30 25 57 47 60 50 3 3 21 17 40 30 19 14 42 32 50 40 9 8 28
24 44 35 33 24 58 45 107 88 19 18 62 55 94 82 32 28 66 57 75 65 14 13 104
88 138 115 35 28 158 135 230 200 80 72 183 176 223 225 19 23 41 50 50 60 8
10 24 31 35 45 10 15 25 33 32 40 6 8 12 16 12 19 0 3 17 29 38 58 35 50 40
53 82 54 95 3 325 27 325 34 0 1 18 3 40 5 22 2 94 18 160 35 66 18 138 37
160 43 22 6 43 15 47 21 4 6 8 8 8 4 0 -24 417 164 428 193 2 5 8 9 14 9 5 0
28 13 51 29 37 25 55 40 104 81 7 5 15 10 18 10 13 0 206 197 254 260 28 36
55 70 60 76 4 5 13 20 20 31 6 12 17 27 24 35 7 7 20 27 29 43 8 17 35 68 59
115 47 90 118 258 138 325 7 22 16 49 21 60 10 21 48 153 56 195 3 14 10 45
15 70 6 25 13 54 15 65 7 28 16 86 19 115 1 14 3 25 4 25 1 0 4 23 6 50 2 28
7 70 10 95 4 25 8 68 10 95 2 28 4 50 4 50 14 0 22 820 9 905 -10 67 -12 72
-35 110 -25 40 -49 62 -101 93 -37 22 -37 22 -747 24 -390 1 -717 2 -726 3
-14 0 -15 73 -14 738 0 405 -1 743 -3 750 -3 9 -598 12 -2931 12 l-2926 0 -1
-746z m-408 -1657 c39 0 76 3 83 7 6 4 11 4 11 -1 0 -4 28 -7 62 -5 35 1 68 2
73 2 32 0 191 -7 195 -8 3 -1 6 -39 7 -85 4 -139 20 -353 38 -489 12 -96 15
-116 20 -158 3 -25 7 -56 10 -70 3 -14 7 -41 10 -60 2 -19 6 -44 8 -55 3 -11
8 -42 11 -70 4 -27 11 -69 17 -93 5 -23 12 -59 15 -80 3 -20 7 -45 10 -54 3
-9 7 -27 10 -40 5 -25 10 -48 19 -88 3 -14 8 -40 11 -59 6 -33 5 -33 -23 -26
-15 4 -32 8 -38 9 -77 19 -78 19 -160 57 -27 13 -52 23 -55 23 -3 1 -37 19
-75 41 -62 36 -235 188 -235 207 0 4 -14 27 -30 52 -41 60 -92 175 -124 274
-25 79 -30 101 -41 160 -14 79 -16 91 -30 212 -9 76 -15 170 -19 277 -2 56 -7
106 -10 111 -3 5 26 8 64 8 39 -1 70 3 70 7 0 5 5 5 12 1 7 -4 44 -8 84 -7z
m6344 0 c0 7 44 9 60 3 3 -1 9 -2 14 -1 34 7 76 6 76 -1 0 -5 8 -5 17 1 10 5
26 5 41 0 13 -5 21 -6 19 -1 -3 4 10 7 28 7 18 0 31 -3 29 -7 -3 -4 5 -4 18 1
13 5 33 5 46 0 13 -5 21 -6 19 -1 -3 4 19 7 49 7 30 0 54 -4 54 -8 0 -4 8 -4
17 2 10 5 26 5 41 0 13 -5 21 -6 19 -1 -6 8 55 8 70 -1 10 -6 9 -128 -2 -247
-3 -36 -8 -87 -10 -115 -3 -27 -7 -59 -10 -71 -2 -11 -7 -43 -10 -70 -3 -27
-8 -56 -10 -64 -3 -8 -7 -33 -11 -55 -10 -66 -102 -313 -124 -335 -3 -3 -6
-10 -7 -16 -2 -12 -59 -98 -88 -133 -38 -45 -149 -151 -159 -151 -3 0 -24 -13
-48 -29 -71 -48 -249 -124 -318 -135 -14 -3 -25 -5 -25 -6 0 -1 -13 -4 -28 -6
-31 -5 -31 -6 -11 101 2 11 7 40 10 65 3 25 7 47 9 50 2 3 6 29 10 59 4 30 9
63 11 75 2 12 6 41 9 66 3 25 7 56 10 69 2 13 7 49 10 80 4 31 9 70 11 86 3
17 8 59 10 95 6 74 12 125 14 125 1 0 3 27 5 60 2 33 6 89 9 125 6 66 16 234
19 325 2 47 4 50 30 51 15 1 30 4 33 7 4 4 15 2 25 -4 11 -5 19 -6 19 -2z"/>
</g>
</svg>
